<svg width="212" height="456" viewBox="0 0 212 456" fill="none" xmlns="http://www.w3.org/2000/svg">
<path d="M148.594 236.259C159.179 245.972 162.093 262.564 163.984 277.569C164.434 290.366 162.625 301.182 155.781 311.494C150.711 315.756 150.711 315.756 146.562 317.887C143.52 312.261 140.478 306.634 137.344 300.837C138.294 302.772 139.245 304.706 140.225 306.698C142.875 313.625 142.875 313.625 142.299 318.553C141.881 319.74 141.462 320.927 141.031 322.15C141.031 322.853 141.031 323.557 141.031 324.281C142.857 324.281 144.682 324.281 146.562 324.281C147.812 327.601 149.036 330.934 150.25 334.271C150.934 336.126 151.619 337.98 152.324 339.891C153.972 345.716 154.241 350.17 153.937 356.25C149.103 359.458 144.263 362.653 139.418 365.841C137.354 367.213 137.354 367.213 135.248 368.613C133.929 369.478 132.61 370.344 131.251 371.235C130.034 372.039 128.818 372.842 127.564 373.67C124.437 375.431 124.437 375.431 120.75 375.431C120.75 376.838 120.75 378.244 120.75 379.694C110.955 384.083 101.124 388.335 91.25 392.481C89.4984 393.231 87.7467 393.981 85.942 394.754C70.2359 400.635 54.0909 399.435 37.7812 398.875C51.1257 419.303 69.5847 431.929 91.25 437.237C99.37 438.345 107.202 439.31 115.219 437.237C119.341 432.685 119.341 432.685 122.594 426.581C123.837 424.485 125.08 422.389 126.36 420.229C127.665 417.974 128.97 415.718 130.314 413.394C150.162 379.728 150.162 379.728 161.312 375.431C161.008 374.332 160.704 373.233 160.391 372.101C159.191 365.343 159.354 358.867 159.469 351.987C162.508 358.311 163.972 364.042 165 371.169C166.091 371.556 167.182 371.943 168.306 372.343C169.763 372.878 171.22 373.414 172.721 373.966C174.154 374.485 175.587 375.004 177.064 375.539C182.042 377.763 186.313 380.658 190.812 383.956C195.508 363.431 199.502 343.232 201.875 322.15C203.092 322.15 204.309 322.15 205.562 322.15C206.171 320.04 206.779 317.93 207.406 315.756C214.859 332.987 209.352 360.808 204.336 378.225C193.92 410.909 173.928 433.393 147.362 448.443C135.095 454.212 123.345 455.096 110.264 455.22C108.643 455.242 107.023 455.263 105.353 455.285C95.6298 455.135 87.5112 453.475 78.4054 449.507C74.5112 447.831 70.6066 446.583 66.5898 445.363C43.6208 436.497 26.0084 413.587 13.8125 390.35C12.7858 388.416 11.759 386.482 10.7012 384.489C-1.51201 349.531 2.31264 315.377 8.28125 279.525C10.715 280.228 13.1487 280.932 15.6562 281.656C15.6562 283.766 15.6562 285.876 15.6562 288.05C18.09 289.457 20.5237 290.863 23.0312 292.312C23.1073 290.906 23.1834 289.499 23.2617 288.05C29.1303 264.792 50.1234 246.509 67.5909 235.385C74.1793 231.918 78.595 230.991 85.7187 232.637C92.0566 235.834 92.0566 235.834 96.7812 239.031C92.218 233.756 92.218 233.756 87.5625 228.375C108.776 223.768 129.428 224.121 148.594 236.259Z" fill="#528D44"/>
<path d="M163.156 0.331299C164.069 2.44124 164.069 2.44124 165 4.5938C163.354 9.03633 163.354 9.03633 160.729 14.5341C159.781 16.558 158.832 18.5819 157.855 20.6672C156.315 23.9199 156.315 23.9199 154.744 27.2383C145.664 46.8885 137.323 66.3044 131.812 87.7126C131.324 89.5818 130.836 91.451 130.332 93.3768C126.428 109.609 125.437 124.728 125.59 141.527C125.568 143.911 125.547 146.296 125.525 148.753C125.567 162.546 126.529 173.298 131.812 185.75C133.029 186.453 134.246 187.157 135.5 187.881C135.5 192.804 135.5 197.728 135.5 202.8C137.325 202.8 139.151 202.8 141.031 202.8C140.832 199.812 140.832 199.812 140.628 196.764C140.159 189.1 139.758 181.441 139.417 173.768C139.267 170.455 139.103 167.143 138.922 163.832C137.521 136.256 140.385 108.955 150.25 83.4501C151.467 82.7467 152.684 82.0434 153.938 81.3188C153.746 83.788 153.746 83.788 153.55 86.3072C152.259 104.067 151.7 121.709 151.633 139.529C151.595 142.107 151.557 144.685 151.518 147.342C151.463 161.896 152.435 172.501 157.625 185.75C158.929 190.488 160.2 195.238 161.428 200.003C163.118 206.554 164.804 212.908 167.067 219.226C168.688 224.113 168.688 224.113 168.688 230.506C171.425 231.561 171.425 231.561 174.219 232.638C177.133 239.635 179.471 246.587 181.594 253.95C182.811 253.95 184.027 253.95 185.281 253.95C184.673 250.434 184.064 246.917 183.438 243.294C188.832 248.607 190.886 254.118 193.463 261.676C196.232 269.679 199.066 277.576 202.221 285.386C205.928 294.986 209.902 305.432 208.753 316.114C208.309 317.403 207.864 318.691 207.406 320.019C205.581 320.722 203.756 321.425 201.875 322.15C201.946 324.579 202.018 327.007 202.091 329.51C202.087 339.376 200.484 348.314 198.418 357.849C198.097 359.428 197.776 361.008 197.446 362.635C195.859 370.202 194.225 377.205 190.812 383.956C184.341 382.571 179.801 379.366 174.219 375.431C172.584 374.816 170.948 374.201 169.264 373.566C165 371.169 165 371.169 162.58 365.574C162.162 363.904 161.743 362.234 161.312 360.513C161.617 362.666 161.921 364.82 162.234 367.04C161.041 377.902 157.908 379.579 150.776 386.079C143.011 393.95 137.614 403.995 131.812 413.794C129.434 417.748 127.053 421.7 124.668 425.649C123.646 427.366 122.624 429.083 121.571 430.852C118.906 435.106 118.906 435.106 115.219 439.369C89.9909 443.112 68.7944 433.119 48.8438 415.925C44.7032 411.861 41.3417 407.921 37.7812 403.138C37.7812 401.731 37.7812 400.324 37.7812 398.875C39.8133 398.845 41.8454 398.815 43.9391 398.783C66.3897 398.098 88.0529 394.568 108.276 382.541C113.375 379.694 113.375 379.694 120.75 379.694C120.75 378.287 120.75 376.881 120.75 375.431C125.585 372.223 130.425 369.028 135.27 365.841C137.334 364.468 137.334 364.468 139.44 363.068C140.759 362.203 142.078 361.338 143.437 360.446C144.653 359.642 145.87 358.839 147.123 358.011C150.25 356.25 150.25 356.25 153.938 356.25C153.405 354.299 152.873 352.349 152.324 350.339C151.297 346.54 151.297 346.54 150.25 342.663C149.223 338.88 149.223 338.88 148.176 335.021C146.562 328.544 146.562 328.544 146.562 324.281C142.912 324.985 139.261 325.688 135.5 326.413C136.926 325.16 136.926 325.16 138.381 323.882C141.532 320.192 141.532 320.192 140.686 315.09C139.059 308.873 137.351 302.708 135.5 296.575C140.973 301.998 143.542 308.276 146.562 315.756C154.157 312.049 156.574 308.045 159.894 299.531C164.889 281.623 160.678 264.562 154.946 247.531C150.714 238.082 147.868 236.039 139.188 232.638C137.02 231.758 134.852 230.879 132.619 229.974C118.808 226.436 103.143 226.769 89.4062 230.506C92.4484 234.023 95.4906 237.539 98.625 241.163C89.8672 237.166 89.8672 237.166 85.7188 234.769C73.9279 232.398 66.2779 237.894 56.3556 245.017C42.2914 256.606 31.4212 269.477 24.875 288.05C26.0919 289.457 27.3087 290.863 28.5625 292.313C25.2207 293.778 25.2207 293.778 21.1875 294.444C17.9609 291.78 17.9609 291.78 15.6562 288.05C15.6562 285.94 15.6562 283.83 15.6562 281.656C13.2225 280.953 10.7888 280.25 8.28125 279.525C11.7701 249.597 20.3973 224.767 32.3283 198.219C34.8117 192.671 37.2193 187.081 39.625 181.488C40.8542 178.646 42.0833 175.804 43.3125 172.963C44.5294 172.963 45.7462 172.963 47 172.963C47.4183 171.468 47.8366 169.973 48.2676 168.434C50.6344 162.441 53.4319 158.215 57.2991 153.398C60.2233 149.254 60.2233 149.254 63.0248 142.992C68.2178 132.273 74.754 122.738 81.2246 113.021C82.5367 111.041 83.8488 109.06 85.2006 107.02C94.0292 93.7712 103.097 80.8352 112.561 68.19C116.933 62.3111 121.156 56.3234 125.359 50.2825C132.946 39.4941 140.982 29.2978 149.184 19.1379C154.022 13.0121 158.603 6.7396 163.156 0.331299Z" fill="#EFE4C0"/>
<path d="M165 236.9C171.615 237.537 173.816 238.541 178.482 244.226C181.594 249.688 181.594 249.688 181.594 253.95C182.811 253.95 184.027 253.95 185.281 253.95C184.369 248.675 184.369 248.675 183.438 243.294C188.832 248.607 190.886 254.118 193.463 261.676C196.232 269.679 199.066 277.576 202.221 285.386C205.928 294.986 209.902 305.432 208.753 316.114C208.309 317.403 207.864 318.691 207.406 320.019C204.668 321.074 204.668 321.074 201.875 322.15C201.946 324.579 202.018 327.007 202.091 329.51C202.087 339.376 200.484 348.314 198.418 357.848C198.097 359.428 197.776 361.008 197.446 362.635C195.859 370.202 194.225 377.205 190.812 383.956C184.341 382.571 179.801 379.366 174.219 375.431C172.584 374.816 170.948 374.2 169.264 373.566C165 371.169 165 371.169 162.58 365.574C162.162 363.904 161.743 362.234 161.312 360.513C161.617 362.666 161.921 364.82 162.234 367.039C161.041 377.902 157.908 379.579 150.776 386.079C143.011 393.95 137.614 403.995 131.812 413.794C129.434 417.748 127.053 421.7 124.668 425.649C123.646 427.366 122.624 429.083 121.571 430.852C118.906 435.106 118.906 435.106 115.219 439.369C89.9909 443.112 68.7944 433.119 48.8438 415.925C44.7032 411.861 41.3417 407.921 37.7812 403.138C37.7812 401.731 37.7812 400.324 37.7812 398.875C40.8294 398.83 40.8294 398.83 43.9391 398.783C66.3897 398.097 88.0529 394.568 108.276 382.541C113.375 379.694 113.375 379.694 120.75 379.694C120.75 378.287 120.75 376.881 120.75 375.431C125.585 372.223 130.425 369.028 135.27 365.841C136.646 364.926 138.022 364.011 139.44 363.068C140.759 362.203 142.078 361.338 143.437 360.446C144.653 359.642 145.87 358.839 147.123 358.011C150.25 356.25 150.25 356.25 153.938 356.25C153.405 354.299 152.873 352.349 152.324 350.339C151.64 347.806 150.955 345.273 150.25 342.663C149.566 340.141 148.881 337.619 148.176 335.021C146.562 328.544 146.562 328.544 146.562 324.281C141.087 325.336 141.087 325.336 135.5 326.413C136.926 325.16 136.926 325.16 138.381 323.882C141.532 320.192 141.532 320.192 140.686 315.09C139.059 308.873 137.351 302.708 135.5 296.575C140.973 301.998 143.542 308.275 146.562 315.756C154.154 312.051 156.563 308.044 159.901 299.547C165.119 280.683 159.939 263.172 153.938 245.425C157.588 243.315 161.239 241.205 165 239.031C165 238.328 165 237.625 165 236.9Z" fill="#D5D0B0"/>
<path d="M148.594 236.259C159.179 245.972 162.093 262.564 163.984 277.569C164.434 290.366 162.625 301.182 155.781 311.494C150.711 315.756 150.711 315.756 146.562 317.887C143.52 312.261 140.478 306.634 137.344 300.837C138.294 302.772 139.245 304.706 140.225 306.698C142.875 313.625 142.875 313.625 142.645 318.42C141.031 322.15 141.031 322.15 135.5 326.412C111.996 334.403 88.8144 323.722 68.1239 311.302C62.0201 307.404 56.0676 303.296 50.1113 299.106C41.0692 292.849 33.4265 289.852 23.0312 288.05C31.7505 262.613 51.3772 243.393 72.8125 232.637C82.6167 230.81 88.2895 233.285 96.7812 239.031C92.218 233.756 92.218 233.756 87.5625 228.375C108.776 223.768 129.428 224.121 148.594 236.259Z" fill="#32307D"/>
<path d="M8.28125 279.525C10.715 280.228 13.1487 280.932 15.6562 281.656C15.6562 283.766 15.6562 285.876 15.6562 288.05C17.4816 288.753 19.3069 289.457 21.1875 290.181C20.9427 291.418 20.6979 292.654 20.4457 293.928C20.1201 295.592 19.7945 297.257 19.459 298.973C19.1381 300.605 18.8173 302.236 18.4867 303.918C13.838 329.57 12.3912 359.366 23.8235 383.016C29.3676 392.006 29.3676 392.006 37.7812 396.744C39.6417 400.284 41.4832 403.838 43.3125 407.4C54.1807 419.779 65.7743 427.547 80.1875 432.975C81.9415 433.731 83.6955 434.486 85.5027 435.264C91.6956 437.39 97.0133 438.021 103.465 438.17C105.504 438.255 107.543 438.34 109.644 438.428C115.465 437.815 115.465 437.815 119.158 432.675C120.292 430.664 121.426 428.653 122.594 426.581C123.837 424.485 125.08 422.389 126.36 420.229C127.665 417.974 128.97 415.718 130.314 413.394C150.162 379.728 150.162 379.728 161.312 375.431C161.008 374.332 160.704 373.233 160.391 372.101C159.191 365.343 159.354 358.867 159.469 351.988C162.508 358.311 163.972 364.042 165 371.169C166.091 371.556 167.182 371.944 168.306 372.343C170.491 373.146 170.491 373.146 172.721 373.966C174.154 374.485 175.587 375.005 177.064 375.539C182.042 377.763 186.313 380.658 190.812 383.956C195.508 363.431 199.502 343.232 201.875 322.15C203.092 322.15 204.309 322.15 205.562 322.15C206.475 318.985 206.475 318.985 207.406 315.756C214.859 332.987 209.352 360.808 204.336 378.225C193.92 410.909 173.928 433.393 147.362 448.443C135.095 454.212 123.345 455.096 110.264 455.22C108.643 455.242 107.023 455.263 105.353 455.285C95.6298 455.136 87.5112 453.475 78.4054 449.507C74.5112 447.831 70.6066 446.583 66.5898 445.363C43.6208 436.497 26.0084 413.587 13.8125 390.35C12.7858 388.416 11.759 386.482 10.7012 384.489C-1.51201 349.531 2.31264 315.377 8.28125 279.525Z" fill="#AD8330"/>
<path d="M157.625 356.25C159.312 362.831 160.137 368.579 159.469 375.431C156.361 380.389 152.851 383.99 148.874 388.027C141.891 395.511 137.069 404.679 131.812 413.794C129.479 417.709 127.136 421.616 124.783 425.516C123.745 427.252 122.706 428.988 121.636 430.777C118.906 435.106 118.906 435.106 115.219 439.369C89.9909 443.112 68.7944 433.119 48.8438 415.925C44.7032 411.861 41.3417 407.92 37.7812 403.137C37.7812 401.731 37.7812 400.324 37.7812 398.875C40.8294 398.83 40.8294 398.83 43.9391 398.783C66.3897 398.097 88.0529 394.568 108.276 382.541C113.375 379.694 113.375 379.694 120.75 379.694C120.75 378.287 120.75 376.88 120.75 375.431C125.503 372.212 130.266 369.019 135.039 365.841C136.384 364.926 137.729 364.011 139.115 363.068C140.423 362.203 141.73 361.338 143.077 360.446C144.274 359.642 145.471 358.839 146.705 358.011C150.25 356.25 150.25 356.25 157.625 356.25Z" fill="#FAFAF7"/>
<path d="M159.469 351.987C162.508 358.311 163.972 364.042 165 371.169C168.042 371.872 171.084 372.575 174.219 373.3C174.219 375.41 174.219 377.52 174.219 379.694C175.436 379.694 176.652 379.694 177.906 379.694C181.018 383.157 181.018 383.157 183.438 388.219C183.438 396.969 182.22 400.208 177.1 406.734C174.761 409.174 174.761 409.174 172.375 411.662C170.55 414.827 170.55 414.827 168.688 418.056C166.254 418.056 163.82 418.056 161.312 418.056C161.274 419.287 161.236 420.518 161.197 421.786C158.437 429.445 152.829 431.929 146.562 435.106C136.591 439.379 127.782 442.12 117.062 441.5C115.237 442.555 115.237 442.555 113.375 443.631C90.8033 446.92 68.8998 437.075 50.6875 422.319C48.9382 420.912 47.189 419.505 45.3867 418.056C40.6814 412.937 37.4636 407.354 34.0938 401.006C39.77 403.947 43.7605 407.403 48.2676 412.329C66.4254 430.99 85.9111 437.701 109.904 438.503C115.491 437.765 115.491 437.765 119.13 432.667C120.273 430.659 121.416 428.65 122.594 426.581C123.837 424.485 125.08 422.389 126.36 420.229C127.665 417.974 128.97 415.718 130.314 413.394C150.162 379.728 150.162 379.728 161.312 375.431C161.008 374.332 160.704 373.233 160.391 372.101C159.191 365.343 159.354 358.867 159.469 351.987Z" fill="#846E44"/>
<path d="M74.6562 136.731C76.5 143.125 76.5 143.125 73.9288 149.527C69.8104 159.826 69.9327 170.169 69.7012 181.354C69.6382 183.422 69.5752 185.489 69.5103 187.619C69.3594 192.679 69.2315 197.738 69.125 202.8C70.9503 203.503 72.7756 204.207 74.6562 204.931C75.5689 212.316 75.5689 212.316 76.5 219.85C74.5998 220.699 74.5998 220.699 72.6613 221.565C70.9999 222.318 69.3386 223.071 67.627 223.846C65.9799 224.588 64.3328 225.33 62.6359 226.094C57.7359 228.35 57.7359 228.35 52.5312 232.638C50.7059 232.638 48.8806 232.638 47 232.638C47 234.044 47 235.451 47 236.9C44.5009 239.664 44.5009 239.664 41.123 242.761C36.5154 247.138 32.6098 251.474 28.9082 256.88C27.5772 258.727 26.2463 260.573 24.875 262.475C23.6581 262.475 22.4413 262.475 21.1875 262.475C20.6551 264.541 20.1227 266.607 19.5742 268.736C17.5 275.263 17.5 275.263 13.8125 277.394C19.2546 231.298 46.3079 169.5 74.6562 136.731Z" fill="#FDFDF8"/>
<path d="M157.625 245.425C171.267 248.545 178.595 260.907 185.973 273.531C192.707 285.478 196.131 294.887 194.5 309.362C187.909 324.93 173.686 340.18 161.312 349.856C159.487 349.856 157.662 349.856 155.781 349.856C154.489 346.138 153.227 342.405 151.979 338.667C151.273 336.59 150.567 334.513 149.839 332.373C148.361 326.225 148.097 323.669 150.25 317.887C153.284 314.291 156.358 310.739 159.469 307.231C166.103 295.728 163.955 279.964 163.156 266.737C161.812 259.362 160.021 252.431 157.625 245.425Z" fill="#538943"/>
<path d="M8.28125 279.525C10.715 280.228 13.1487 280.932 15.6562 281.656C15.6562 283.766 15.6562 285.876 15.6562 288.05C17.4816 288.753 19.3069 289.457 21.1875 290.181C20.9427 291.418 20.6979 292.654 20.4457 293.928C20.1201 295.592 19.7945 297.257 19.459 298.973C19.1381 300.605 18.8173 302.236 18.4867 303.918C13.838 329.57 12.3912 359.366 23.8235 383.016C29.3676 392.006 29.3676 392.006 37.7812 396.744C37.7812 399.557 37.7812 402.37 37.7812 405.269C48.2735 419.671 61.8901 429.397 76.5 437.238C70.9687 439.369 70.9687 439.369 65.4375 437.238C65.4375 439.347 65.4375 441.457 65.4375 443.631C42.5133 433.7 26.2158 414.246 13.8125 390.35C12.7858 388.416 11.759 386.482 10.7012 384.489C-1.51201 349.531 2.31264 315.377 8.28125 279.525Z" fill="#AC8536"/>
<path d="M196.344 311.494C197.561 311.494 198.777 311.494 200.031 311.494C201.322 361.243 201.322 361.243 190.812 383.956C184.341 382.571 179.801 379.366 174.219 375.431C171.709 374.31 171.709 374.31 169.148 373.167C165 371.169 165 371.169 163.156 366.906C161.435 356.417 161.435 356.417 163.156 349.856C167.297 345.061 171.753 341.35 176.523 337.418C183.423 331.142 188.232 323.693 193.405 315.556C194.375 314.216 195.345 312.875 196.344 311.494Z" fill="#FBFAF8"/>
<path d="M163.156 0.331299C164.069 2.44124 164.069 2.44124 165 4.5938C163.354 9.03633 163.354 9.03633 160.729 14.5341C159.781 16.5575 158.833 18.5809 157.855 20.6656C156.829 22.8346 155.802 25.0036 154.744 27.2383C140.93 57.1556 131.396 86.7486 124.438 119.681C123.221 118.978 122.004 118.275 120.75 117.55C121.011 114.13 121.282 110.712 121.557 107.293C121.706 105.39 121.856 103.486 122.01 101.524C122.831 94.0835 124.502 89.7313 128.125 83.45C120.562 81.286 120.562 81.286 113.375 83.45C112.767 82.0434 112.158 80.6368 111.531 79.1875C108.489 86.2207 105.447 93.2538 102.312 100.5C100.487 99.7967 98.6619 99.0934 96.7812 98.3688C97.7392 88.9733 100.487 84.1834 105.77 77.0563C107.267 75.015 108.764 72.9738 110.307 70.8707C111.107 69.7968 111.908 68.723 112.732 67.6166C115.261 64.2118 117.757 60.7778 120.246 57.3339C129.416 44.669 138.769 32.2377 148.377 20.0121C153.415 13.5573 158.293 6.96167 163.156 0.331299Z" fill="#B28833"/>
<path d="M32.25 200.669C33.4669 201.372 34.6837 202.075 35.9375 202.8C34.8414 210.019 33.2723 216.396 30.8168 223.147C30.1739 224.949 29.531 226.751 28.8686 228.608C27.5235 232.329 26.1744 236.047 24.821 239.764C20.6378 251.519 17.7444 262.776 15.6562 275.263C17.4816 271.043 19.3069 266.823 21.1875 262.475C22.4044 262.475 23.6212 262.475 24.875 262.475C26.0919 259.662 27.3087 256.849 28.5625 253.95C29.7794 253.95 30.9962 253.95 32.25 253.95C33.4669 251.137 34.6837 248.324 35.9375 245.425C40.805 246.128 45.6725 246.832 50.6875 247.556C49.0742 249.732 47.4609 251.908 45.8477 254.083C44.8447 255.443 43.8417 256.803 42.8083 258.204C40.7499 260.966 38.6674 263.704 36.5569 266.413C31.2433 273.296 27.2376 279.038 24.875 288.05C26.0919 289.457 27.3087 290.863 28.5625 292.313C25.2207 293.778 25.2207 293.778 21.1875 294.444C17.9609 291.78 17.9609 291.78 15.6562 288.05C15.6562 285.94 15.6562 283.83 15.6562 281.656C13.2225 280.953 10.7888 280.25 8.28125 279.525C11.7057 250.149 19.5813 226.173 32.25 200.669Z" fill="#E4D59D"/>
<path d="M161.312 383.956C161.712 390.491 162.003 396.994 162.234 403.537C162.42 406.3 162.42 406.3 162.609 409.119C162.756 414.68 162.655 419.099 161.312 424.45C154.143 433.233 144.738 436.436 134.578 437.904C132.658 438.203 130.737 438.502 128.759 438.811C127.333 438.995 125.907 439.179 124.438 439.369C125.551 432.653 127.377 428.489 131.006 423.118C131.992 421.651 132.979 420.184 133.995 418.672C135.1 417.062 136.205 415.452 137.344 413.794C138.582 411.964 139.82 410.134 141.096 408.249C157.679 383.956 157.679 383.956 161.312 383.956Z" fill="#211E18"/>
<path d="M50.6875 47.2188C59.1668 51.528 63.4882 58.1595 69.125 66.4C71.2926 69.3671 71.2926 69.3671 73.5039 72.3941C77.7935 82.1203 78.2373 89.7993 76.5 100.5C71.8664 114.219 65.5134 126.937 58.0625 138.863C55.5613 133.08 57.3023 130.034 58.8979 124.127C60.6544 116.383 61.1567 108.459 61.75 100.5C64.1838 100.5 66.6175 100.5 69.125 100.5C69.125 96.2801 69.125 92.0603 69.125 87.7125C65.4744 87.0092 61.8237 86.3059 58.0625 85.5813C57.6846 83.3477 57.3067 81.1141 56.9174 78.8129C56.4158 75.874 55.914 72.9352 55.4121 69.9965C55.1637 68.5253 54.9154 67.0541 54.6595 65.5383C53.5863 59.2755 52.4363 53.2831 50.6875 47.2188Z" fill="#F3ECD3"/>
<path d="M192.656 288.05C195.09 288.753 197.524 289.457 200.031 290.181C200.031 292.291 200.031 294.401 200.031 296.575C201.857 297.278 203.682 297.982 205.563 298.706C207.952 304.92 209.383 309.598 208.904 316.422C208.41 317.609 207.916 318.796 207.406 320.019C205.581 320.722 203.756 321.425 201.875 322.15C201.875 327.776 201.875 333.403 201.875 339.2C201.267 339.2 200.658 339.2 200.031 339.2C200.031 330.057 200.031 320.914 200.031 311.494C198.814 311.494 197.598 311.494 196.344 311.494C195.899 312.681 195.455 313.867 194.997 315.09C192.154 321.077 188.673 325.618 184.705 330.675C183.305 332.477 181.905 334.279 180.463 336.136C176.152 341.226 171.836 345.681 166.844 349.856C165.627 349.856 164.41 349.856 163.156 349.856C163.194 351.483 163.232 353.109 163.271 354.785C163.156 360.512 163.156 360.512 161.313 366.906C160.704 369.719 160.096 372.533 159.469 375.431C158.86 369.101 158.252 362.772 157.625 356.25C156.408 356.25 155.191 356.25 153.938 356.25C152.702 351.723 151.474 347.194 150.25 342.663C149.566 340.141 148.881 337.619 148.176 335.021C146.563 328.544 146.563 328.544 146.563 324.281C142.912 324.985 139.261 325.688 135.5 326.412C136.451 325.577 137.401 324.742 138.381 323.882C141.532 320.192 141.532 320.192 140.686 315.09C139.059 308.873 137.351 302.708 135.5 296.575C139.632 300.669 141.391 303.835 143.797 309.629C146.067 316.388 146.067 316.388 152.094 317.887C151.675 318.986 151.257 320.085 150.826 321.218C149.966 328.971 153.068 334.305 155.781 341.331C155.781 344.144 155.781 346.958 155.781 349.856C162.707 345.359 168.45 340.298 174.334 334.138C175.876 332.539 177.419 330.94 179.008 329.293C188.88 318.545 188.88 318.545 192.836 304.284C192.815 302.356 192.794 300.427 192.771 298.44C192.755 296.5 192.738 294.561 192.721 292.562C192.7 291.073 192.678 289.584 192.656 288.05Z" fill="#C4AF6D"/>
<path d="M17.5 302.969C18.1085 302.969 18.7169 302.969 19.3438 302.969C19.2955 304.438 19.2472 305.907 19.1975 307.42C16.7345 349.966 16.7345 349.966 31.2921 387.703C39.5407 395.497 51.8152 393.361 61.75 392.481C78.3654 389.525 94.7937 385.008 110.148 376.996C113.375 375.431 113.375 375.431 117.063 375.431C117.063 376.838 117.063 378.245 117.063 379.694C97.3832 392.762 75.6428 399.822 52.9922 399.941C51.6093 399.954 50.2263 399.967 48.8015 399.98C40.5332 399.759 35.1394 398.314 28.5625 392.481C14.7083 374.941 12.9143 351.593 13.3732 328.619C13.9776 319.72 15.4802 311.578 17.5 302.969Z" fill="#545A30"/>
<path d="M8.28123 279.525C10.715 280.228 13.1487 280.932 15.6562 281.656C15.6562 283.766 15.6562 285.876 15.6562 288.05C17.4815 288.753 19.3069 289.457 21.1875 290.181C20.9427 291.418 20.6979 292.654 20.4457 293.928C20.1201 295.592 19.7944 297.257 19.459 298.973C19.1381 300.605 18.8173 302.236 18.4867 303.918C16.3043 315.96 15.204 327.74 14.6191 339.999C14.5395 341.568 14.4599 343.137 14.3779 344.753C14.1841 348.585 13.9976 352.417 13.8125 356.25C11.9872 353.437 10.1619 350.624 8.28123 347.725C5.54326 348.78 5.54326 348.78 2.74998 349.856C1.91566 325.639 4.32716 303.276 8.28123 279.525Z" fill="#C1A355"/>
<path d="M205.563 315.756C211.545 322.671 210.052 331.826 210.062 341.125C209.827 352.959 208.163 363.617 205.102 374.898C204.536 376.99 204.536 376.99 203.96 379.124C201.373 387.806 197.931 394.179 192.656 401.006C188.521 389.586 188.521 389.586 190.474 383.623C191.554 380.623 191.554 380.623 192.656 377.562C194.104 371.348 195.278 365.069 196.459 358.781C196.779 357.142 197.098 355.503 197.428 353.815C199.434 343.287 200.85 332.865 201.875 322.15C203.092 322.15 204.309 322.15 205.563 322.15C205.563 320.04 205.563 317.93 205.563 315.756Z" fill="#AB8944"/>
<path d="M116.076 67.7737C120.268 68.3478 124.097 69.2162 128.125 70.6625C128.125 72.0691 128.125 73.4758 128.125 74.925C129.342 74.925 130.559 74.925 131.812 74.925C132.421 73.5184 133.029 72.1118 133.656 70.6625C136.177 76.4904 134.84 78.9446 133.26 85.1317C132.755 87.1373 132.25 89.1428 131.73 91.2091C131.187 93.3081 130.644 95.407 130.084 97.5696C129.548 99.685 129.012 101.8 128.46 103.98C127.131 109.218 125.79 114.451 124.438 119.681C123.221 118.978 122.004 118.275 120.75 117.55C121.011 114.13 121.282 110.712 121.557 107.293C121.781 104.438 121.781 104.438 122.01 101.524C122.831 94.0835 124.502 89.7313 128.125 83.45C120.562 81.286 120.562 81.286 113.375 83.45C112.767 82.0434 112.158 80.6368 111.531 79.1875C108.489 86.2206 105.447 93.2538 102.312 100.5C100.487 99.7967 98.6619 99.0934 96.7812 98.3688C98.3033 86.009 104.201 69.7533 116.076 67.7737Z" fill="#CEB062"/>
<path d="M172.375 375.431C172.983 376.838 173.592 378.245 174.219 379.694C175.436 379.694 176.652 379.694 177.906 379.694C181.018 383.157 181.018 383.157 183.438 388.219C183.438 396.969 182.22 400.208 177.1 406.734C175.54 408.36 173.981 409.987 172.375 411.663C171.158 413.772 169.941 415.882 168.688 418.056C167.471 418.056 166.254 418.056 165 418.056C165 405.397 165 392.737 165 379.694C167.434 378.287 169.867 376.881 172.375 375.431Z" fill="#272218"/>
<path d="M70.9688 219.85C74.6562 221.981 74.6562 221.981 76.5 226.244C80.2183 228.66 80.2183 228.66 83.875 230.506C82.6724 231.023 81.4698 231.539 80.2307 232.071C72.7097 235.405 66.1769 238.428 59.5605 243.827C53.0715 248.494 48.9804 248.558 41.4688 247.556C40.2519 246.15 39.035 244.743 37.7812 243.294C40.3164 240.097 40.3164 240.097 43.3125 236.9C44.5294 236.9 45.7462 236.9 47 236.9C47 235.493 47 234.087 47 232.637C50.9095 230.442 54.8294 228.27 58.7539 226.111C60.9357 224.899 63.1175 223.687 65.3655 222.439C67.2146 221.585 69.0636 220.73 70.9688 219.85Z" fill="#EDE4C7"/>
<path d="M129.969 42.9563C131.186 45.7695 132.402 48.5828 133.656 51.4813C134.873 52.1846 136.09 52.8879 137.344 53.6125C137.952 52.2059 138.561 50.7993 139.188 49.35C141.211 56.5807 141.14 59.6621 138.842 66.9329C135.5 72.7938 135.5 72.7938 131.467 74.6586C129.813 74.7905 129.813 74.7905 128.125 74.925C128.125 73.5184 128.125 72.1118 128.125 70.6625C126.528 71.3878 126.528 71.3878 124.898 72.1278C120.75 72.7938 120.75 72.7938 113.375 66.4C118.851 58.6636 124.327 50.9272 129.969 42.9563Z" fill="#C29E4A"/>
<path d="M135.5 296.575C139.632 300.669 141.391 303.835 143.797 309.629C146.067 316.388 146.067 316.388 152.094 317.888C151.675 318.986 151.257 320.085 150.826 321.218C149.966 328.971 153.068 334.305 155.781 341.331C155.781 344.145 155.781 346.958 155.781 349.856C163.122 345.228 168.846 339.652 174.867 333.039C175.87 332.259 176.873 331.479 177.906 330.675C179.732 331.378 181.557 332.082 183.438 332.806C180.759 335.661 178.068 338.499 175.371 341.331C173.874 342.914 172.376 344.496 170.834 346.127C166.844 349.856 166.844 349.856 163.156 349.856C163.194 351.483 163.232 353.109 163.271 354.785C163.156 360.513 163.156 360.513 161.312 366.906C160.704 369.72 160.096 372.533 159.469 375.431C158.86 369.101 158.252 362.772 157.625 356.25C156.408 356.25 155.191 356.25 153.938 356.25C152.702 351.723 151.474 347.194 150.25 342.663C149.566 340.141 148.881 337.619 148.176 335.021C146.562 328.544 146.562 328.544 146.562 324.281C142.912 324.985 139.261 325.688 135.5 326.413C136.451 325.577 137.401 324.742 138.381 323.882C141.532 320.192 141.532 320.192 140.686 315.09C139.059 308.873 137.351 302.708 135.5 296.575Z" fill="#AEAC88"/>
<path d="M47 294.444C57.5196 296.876 67.7233 302.292 76.5 309.362C76.5 310.769 76.5 312.176 76.5 313.625C77.945 313.845 79.3901 314.065 80.8789 314.291C86.2677 315.472 90.7308 317.012 95.8594 319.086C107.593 323.298 119.633 323.56 131.812 322.15C137.651 318.243 137.651 318.243 141.031 311.494C141.944 315.714 141.944 315.714 142.875 320.019C134.184 328.576 125.486 329.217 114.427 328.985C89.7341 326.686 67.1711 312.43 47 296.575C47 295.872 47 295.168 47 294.444Z" fill="#47484D"/>
<path d="M50.6875 47.2188C56.4427 50.1131 59.8502 53.2156 63.8242 58.8074C64.7416 60.0794 65.659 61.3514 66.6042 62.662C71.6425 70.1332 73.2523 74.044 72.8125 83.45C68.5534 82.7467 64.2944 82.0434 59.9062 81.3188C57.1502 73.7421 55.0439 66.217 53.2227 58.2746C52.7426 56.1949 52.2625 54.1152 51.7678 51.9724C51.4113 50.4037 51.0548 48.835 50.6875 47.2188Z" fill="#E5D398"/>
<path d="M34.0938 401.006C39.77 403.947 43.7605 407.403 48.2676 412.328C69.4547 434.103 91.3345 438.385 118.906 437.237C115.972 441.297 114.247 443.412 109.709 444.555C87.9795 444.598 68.3816 436.655 50.6875 422.319C48.9382 420.912 47.189 419.505 45.3867 418.056C40.6814 412.937 37.4636 407.354 34.0938 401.006Z" fill="#5C4C2F"/>
<path d="M159.469 351.987C162.508 358.311 163.972 364.042 165 371.169C168.042 371.872 171.084 372.575 174.219 373.3C173.61 374.707 173.002 376.113 172.375 377.562C170.55 378.266 168.724 378.969 166.844 379.694C166.235 392.353 165.627 405.013 165 418.056C163.783 418.056 162.566 418.056 161.312 418.056C160.704 406.803 160.096 395.55 159.469 383.956C152.246 387.91 152.246 387.91 146.562 392.481C149.219 385.316 152.55 380.564 157.625 375.431C158.842 375.431 160.059 375.431 161.312 375.431C161.008 374.332 160.704 373.233 160.391 372.101C159.191 365.343 159.354 358.867 159.469 351.987Z" fill="#856F43"/>
<path d="M8.28123 279.525C11.9319 280.58 11.9319 280.58 15.6562 281.656C15.6562 283.766 15.6562 285.876 15.6562 288.05C17.4815 288.753 19.3069 289.457 21.1875 290.181C20.6623 293.204 20.1215 296.222 19.5742 299.239C19.2747 300.92 18.9753 302.602 18.6667 304.334C17.5156 309.295 15.9358 313.391 13.8125 317.888C8.28123 313.625 8.28123 313.625 7.27293 307.914C7.08754 304.543 7.08754 304.543 6.89842 301.104C6.75581 298.868 6.61321 296.631 6.46629 294.327C6.44112 288.843 6.85139 284.709 8.28123 279.525Z" fill="#D4B76A"/>
<path d="M161.312 383.956C161.312 395.913 161.312 407.869 161.312 420.187C160.096 420.891 158.879 421.594 157.625 422.319C157.017 420.209 156.408 418.099 155.781 415.925C153.956 417.332 152.131 418.738 150.25 420.187C148.409 413.567 148.518 409.745 150.25 403.137C150.44 401.379 150.63 399.621 150.826 397.809C152.115 392.39 155.554 383.956 161.312 383.956Z" fill="#201C10"/>
<path d="M35.9375 245.425C40.805 246.128 45.6725 246.832 50.6875 247.556C43.9056 257.203 37.0237 265.446 28.5625 273.131C28.5625 269.615 28.5625 266.098 28.5625 262.475C26.7372 263.178 24.9119 263.882 23.0312 264.606C22.4228 266.716 21.8144 268.826 21.1875 271C20.5791 269.593 19.9706 268.187 19.3438 266.737C19.9522 265.331 20.5606 263.924 21.1875 262.475C22.4044 262.475 23.6212 262.475 24.875 262.475C26.0919 259.662 27.3087 256.848 28.5625 253.95C29.7794 253.95 30.9962 253.95 32.25 253.95C33.4669 251.137 34.6837 248.323 35.9375 245.425Z" fill="#E9DCAC"/>
<path d="M87.5625 228.375C92.1258 229.43 92.1258 229.43 96.7812 230.506C97.3897 232.616 97.9981 234.726 98.625 236.9C102.051 239.142 102.051 239.142 106 241.163C119.461 252.167 130.255 267.73 135.5 285.919C128.684 282.794 125.967 278.837 122.018 271.799C112.928 256.285 103.693 243.665 90.3353 232.912C89.4203 232.118 88.5053 231.324 87.5625 230.506C87.5625 229.803 87.5625 229.1 87.5625 228.375Z" fill="#3F405B"/>
<path d="M161.312 271C161.921 271 162.529 271 163.156 271C164.026 286.184 164.071 299.002 155.781 311.494C150.711 315.756 150.711 315.756 146.562 317.888C144.129 312.261 141.695 306.635 139.188 300.838C146.562 298.706 146.562 298.706 150.25 300.838C150.858 299.431 151.467 298.024 152.094 296.575C154.527 296.575 156.961 296.575 159.469 296.575C160.077 288.135 160.686 279.696 161.312 271Z" fill="#373367"/>
<path d="M69.125 113.287C69.7334 114.694 70.3419 116.101 70.9688 117.55C72.7941 118.253 74.6194 118.957 76.5 119.681C73.7069 127.019 69.8226 133.098 65.7616 139.537C63.4249 143.404 61.5499 147.332 59.9062 151.65C55.343 149.54 55.343 149.54 50.6875 147.387C52.4221 142.915 53.8809 139.408 56.9678 135.999C60.4313 131.838 62.504 127.56 64.8613 122.478C65.667 120.756 66.4727 119.033 67.3029 117.259C67.9042 115.948 68.5055 114.638 69.125 113.287Z" fill="#FAF6E9"/>
<path d="M108.305 219.584C110.558 219.578 112.811 219.573 115.132 219.567C120.75 219.85 120.75 219.85 124.438 221.981C126.149 222.289 127.86 222.597 129.623 222.914C135.123 224.036 139.63 225.78 144.719 228.375C144.719 229.782 144.719 231.188 144.719 232.638C143.196 232.213 143.196 232.213 141.643 231.78C123.217 227.256 104.484 226.987 85.7188 226.244C85.1103 224.837 84.5019 223.431 83.875 221.981C92.1117 220.141 99.92 219.563 108.305 219.584Z" fill="#F0EEEF"/>
<path d="M174.219 375.431C180.645 376.807 185.333 379.91 190.812 383.956C191.421 381.846 192.029 379.736 192.656 377.563C193.265 378.969 193.873 380.376 194.5 381.825C192.771 386.354 192.771 386.354 190.812 390.35C191.421 390.35 192.029 390.35 192.656 390.35C193.89 399.854 192.26 404.705 187.471 412.195C183.796 417.607 181.109 420.561 176.062 424.45C176.062 421.637 176.062 418.824 176.062 415.925C177.888 415.925 179.713 415.925 181.594 415.925C181.594 413.815 181.594 411.705 181.594 409.531C182.811 409.531 184.027 409.531 185.281 409.531C185.281 407.421 185.281 405.311 185.281 403.138C186.498 402.434 187.715 401.731 188.969 401.006C189.577 398.896 190.186 396.786 190.812 394.613C188.379 395.316 185.945 396.019 183.438 396.744C181.455 391.091 179.576 385.483 177.906 379.694C176.689 379.694 175.473 379.694 174.219 379.694C174.219 378.287 174.219 376.881 174.219 375.431Z" fill="#A78139"/>
<path d="M4.59376 332.806C10.6728 338.373 11.6905 344.225 13.3516 352.787C14.0788 356.372 14.0788 356.372 14.8208 360.03C15.6381 366.756 15.1085 371.041 13.8125 377.563C15.3793 383.429 15.3793 383.429 17.5 388.219C16.2831 388.922 15.0663 389.625 13.8125 390.35C4.64081 371.074 4.08151 354.386 4.59376 332.806Z" fill="#B68F3D"/>
<path d="M152.094 81.3187C152.702 81.3187 153.311 81.3187 153.938 81.3187C152.983 99.3156 151.253 116.87 148.406 134.6C147.798 131.787 147.189 128.973 146.562 126.075C145.346 126.075 144.129 126.075 142.875 126.075C144.815 89.7326 144.815 89.7326 152.094 81.3187Z" fill="#D6C58E"/>
<path d="M141.031 407.4C142.875 413.794 142.875 413.794 141.031 420.188C140.081 421.242 139.13 422.297 138.15 423.384C134.862 426.613 134.862 426.613 135.5 432.975C138.768 431.654 142.032 430.319 145.295 428.979C147.113 428.237 148.931 427.495 150.805 426.731C156.069 424.55 156.069 424.55 161.312 420.188C159.469 425.772 158.278 428.271 153.75 431.335C143.858 435.672 135.002 438.464 124.438 439.369C125.562 432.193 127.812 427.884 131.697 422.186C134.984 417.323 138.064 412.544 141.031 407.4Z" fill="#41331C"/>
<path d="M179.75 264.606C180.967 264.606 182.184 264.606 183.438 264.606C183.438 266.013 183.438 267.42 183.438 268.869C186.925 270.321 186.925 270.321 190.812 271C192.029 269.593 193.246 268.187 194.5 266.738C200.46 276.58 202.853 287.266 205.562 298.706C203.737 298.003 201.912 297.3 200.031 296.575C199.423 294.465 198.814 292.355 198.188 290.181C197.056 289.547 195.925 288.912 194.759 288.258C189.679 285.247 187.862 281.727 184.82 276.195C183.38 273.619 183.38 273.619 181.911 270.992C179.75 266.738 179.75 266.738 179.75 264.606Z" fill="#DBD290"/>
<path d="M205.562 315.756C209.25 320.019 209.25 320.019 209.61 328.361C209.586 331.708 209.542 335.054 209.48 338.401C209.464 340.11 209.447 341.818 209.43 343.579C209.387 347.803 209.32 352.027 209.25 356.25C208.642 354.843 208.033 353.437 207.406 351.987C206.189 351.987 204.973 351.987 203.719 351.987C203.11 353.394 202.502 354.801 201.875 356.25C201.875 344.997 201.875 333.744 201.875 322.15C203.092 322.15 204.309 322.15 205.562 322.15C205.562 320.04 205.562 317.93 205.562 315.756Z" fill="#C09B4A"/>
<path d="M24.875 288.05C34.455 288.988 40.8481 289.932 48.8438 296.575C43.3999 300.77 40.3535 301.67 34.0938 302.969C32.2684 304.024 32.2684 304.024 30.4062 305.1C29.7978 302.287 29.1894 299.473 28.5625 296.575C25.5203 299.388 22.4781 302.201 19.3438 305.1C18.7353 303.693 18.1269 302.287 17.5 300.837C19.9338 296.618 22.3675 292.398 24.875 288.05Z" fill="#698E51"/>
<path d="M70.9688 219.85C74.6562 221.981 74.6562 221.981 76.5 226.244C80.2183 228.66 80.2183 228.66 83.875 230.506C80.9181 231.885 77.9602 233.261 75.002 234.636C72.5314 235.785 72.5314 235.785 70.0109 236.958C66.6782 238.469 63.3023 239.854 59.9062 241.162C60.5147 237.646 61.1231 234.129 61.75 230.506C59.9247 229.803 58.0994 229.1 56.2188 228.375C58.5907 226.889 60.9745 225.429 63.3633 223.979C64.6895 223.163 66.0157 222.347 67.3821 221.507C68.5657 220.96 69.7493 220.413 70.9688 219.85Z" fill="#F3EEE0"/>
<path d="M133.656 360.513C134.873 361.216 136.09 361.919 137.344 362.644C135.272 364.379 133.197 366.11 131.121 367.839C129.388 369.285 129.388 369.285 127.621 370.761C124.438 373.3 124.438 373.3 120.75 375.431C120.75 376.838 120.75 378.245 120.75 379.694C119.533 379.694 118.316 379.694 117.062 379.694C117.062 378.287 117.062 376.881 117.062 375.431C115.636 376.176 114.21 376.92 112.741 377.687C101.719 383.254 92.2222 387.416 80.1875 388.219C80.1875 386.812 80.1875 385.406 80.1875 383.956C83.2107 383.165 83.2107 383.165 86.2949 382.358C94.7104 379.961 102.684 376.492 110.761 372.884C115.219 371.169 115.219 371.169 120.75 371.169C120.75 369.762 120.75 368.356 120.75 366.906C124.997 364.633 129.305 362.507 133.656 360.513Z" fill="#5A804A"/>
<path d="M91.25 236.9C108.325 242.779 119.183 260.316 128.125 277.394C127.517 278.8 126.908 280.207 126.281 281.656C124.909 279.46 124.909 279.46 123.508 277.219C116.002 265.71 110.742 258.035 98.625 253.95C99.2334 251.84 99.8419 249.73 100.469 247.556C99.2519 247.556 98.035 247.556 96.7812 247.556C96.7812 246.15 96.7812 244.743 96.7812 243.294C94.9559 242.59 93.1306 241.887 91.25 241.163C91.25 239.756 91.25 238.349 91.25 236.9Z" fill="#7E7EA4"/>
<path d="M70.9688 128.206C72.1856 128.206 73.4025 128.206 74.6562 128.206C74.6562 129.613 74.6562 131.019 74.6562 132.469C75.8731 133.172 77.09 133.875 78.3438 134.6C77.1269 134.6 75.91 134.6 74.6562 134.6C74.1809 135.776 73.7056 136.952 73.2158 138.163C70.6376 143.856 67.6728 149.025 64.5156 154.314C63.3938 156.215 62.272 158.116 61.1162 160.075C60.1085 161.515 59.1008 162.954 58.0625 164.437C56.8456 164.437 55.6288 164.437 54.375 164.437C55.3861 155.396 58.0146 150.017 62.6719 142.725C67.1882 135.724 67.1882 135.724 70.9688 128.206Z" fill="#E7DEB0"/>
<path d="M6.43749 279.525C8.73972 287.248 7.80708 293.02 6.55273 300.971C3.94788 320.108 4.27293 339.057 4.59374 358.381C3.37687 357.678 2.15999 356.975 0.906243 356.25C0.798564 347.326 0.733425 338.401 0.675774 329.476C0.644877 326.958 0.61398 324.44 0.582147 321.846C0.519861 308.995 0.7197 298.01 4.59374 285.919C5.20218 283.809 5.81062 281.699 6.43749 279.525Z" fill="#F9F4D9"/>
<path d="M117.062 375.431C117.062 376.838 117.062 378.245 117.062 379.694C90.6809 396.071 90.6809 396.071 79.6401 393.705C78.6039 393.301 77.5676 392.897 76.5 392.481C83.4609 387.198 90.0643 384.232 98.0488 381.559C116.191 375.431 116.191 375.431 117.062 375.431Z" fill="#585D38"/>
<path d="M163.156 326.412C165.59 326.412 168.024 326.412 170.531 326.412C171.748 327.819 172.965 329.226 174.219 330.675C176.653 329.268 179.086 327.862 181.594 326.412C175.419 335.145 169.469 343.486 161.312 349.856C159.487 349.856 157.662 349.856 155.781 349.856C156.39 347.043 156.998 344.23 157.625 341.331C157.625 342.738 157.625 344.144 157.625 345.594C159.45 344.187 161.276 342.78 163.156 341.331C163.617 333.694 163.617 333.694 163.156 326.412Z" fill="#4E6C36"/>
<path d="M63.5938 106.894C66.0275 106.894 68.4613 106.894 70.9688 106.894C70.3858 120.034 64.5301 128.574 58.0625 138.863C55.3249 132.534 57.2383 128.422 58.7539 121.679C59.5168 118.214 59.5168 118.214 60.2952 114.678C61.75 109.025 61.75 109.025 63.5938 106.894Z" fill="#D8C797"/>
<path d="M129.969 42.9563C130.767 45.0003 130.767 45.0003 131.582 47.0856C133.34 51.8054 133.34 51.8054 137.344 53.6125C137.952 52.2059 138.561 50.7993 139.188 49.35C139.796 52.8666 140.404 56.3832 141.031 60.0063C132.862 64.4655 132.862 64.4655 127.549 63.4696C126.522 63.03 125.495 62.5904 124.438 62.1375C123.954 55.4321 123.981 52.2946 127.203 46.5528C128.116 45.3659 129.028 44.1791 129.969 42.9563Z" fill="#BD953F"/>
<path d="M159.469 381.825C156.685 389.132 152.984 394.52 148.406 400.473C146.467 403.028 146.467 403.028 144.488 405.635C141.031 409.531 141.031 409.531 137.344 409.531C138.511 397.388 143.684 393.202 151.402 385.555C155.781 381.825 155.781 381.825 159.469 381.825Z" fill="#9E834A"/>
<path d="M94.9375 91.975C96.1544 94.7882 97.3712 97.6015 98.625 100.5C96.9138 101.753 96.9138 101.753 95.168 103.031C90.9549 106.546 90.9549 106.546 89.6367 111.955C86.7072 119.857 82.3828 123.032 76.5 128.206C77.3884 118.142 81.4719 111.794 86.7559 104.096C87.539 102.925 88.3221 101.753 89.129 100.546C91.0505 97.6757 92.992 94.8235 94.9375 91.975Z" fill="#E3D199"/>
<path d="M203.719 373.3C204.327 373.3 204.936 373.3 205.562 373.3C206.103 386.204 206.103 386.204 205.562 390.35C203.737 391.757 201.912 393.163 200.031 394.612C198.159 399.571 196.316 404.545 194.5 409.531C191.389 413.661 191.389 413.661 188.969 415.925C187.752 415.222 186.535 414.518 185.281 413.794C186.149 412.299 187.016 410.805 187.91 409.265C194.575 397.525 200.006 386.68 203.719 373.3Z" fill="#F5ECCF"/>
<path d="M141.031 117.55C141.64 120.363 142.248 123.177 142.875 126.075C144.092 126.075 145.309 126.075 146.562 126.075C149.009 134.56 148.534 142.806 148.406 151.65C147.798 151.65 147.189 151.65 146.562 151.65C145.954 148.133 145.346 144.617 144.719 140.994C144.11 148.027 143.502 155.06 142.875 162.306C142.267 162.306 141.658 162.306 141.031 162.306C141.031 147.537 141.031 132.767 141.031 117.55Z" fill="#E7DBA8"/>
<path d="M196.344 311.494C197.561 311.494 198.777 311.494 200.031 311.494C200.081 317.666 200.118 323.837 200.146 330.009C200.162 331.749 200.177 333.49 200.193 335.283C200.224 343.985 200.087 352.023 198.188 360.513C197.579 360.513 196.971 360.513 196.344 360.513C196.387 357.793 196.429 355.073 196.473 352.271C196.508 348.713 196.542 345.155 196.574 341.598C196.605 339.804 196.636 338.01 196.668 336.161C196.68 334.444 196.692 332.727 196.704 330.958C196.723 329.373 196.742 327.788 196.762 326.155C196.651 321.628 196.651 321.628 192.656 317.888C193.873 315.778 195.09 313.668 196.344 311.494Z" fill="#FAF5DF"/>
<path d="M50.6875 47.2188C59.1184 52.0915 61.7412 55.7302 67.2812 64.2687C67.2812 65.6754 67.2812 67.082 67.2812 68.5312C64.2391 68.5312 61.1969 68.5312 58.0625 68.5312C55.6287 61.4981 53.195 54.465 50.6875 47.2188Z" fill="#B09658"/>
<path d="M35.9375 245.425C40.805 246.128 45.6725 246.832 50.6875 247.556C48.9678 249.962 47.2371 252.358 45.502 254.749C44.5394 256.084 43.5768 257.42 42.5851 258.795C39.625 262.475 39.625 262.475 34.0938 266.737C33.8633 261.676 33.8633 261.676 34.0938 256.081C35.3106 254.675 36.5275 253.268 37.7812 251.819C37.1728 249.709 36.5644 247.599 35.9375 245.425Z" fill="#DFD5B7"/>
<path d="M192.656 288.05C195.09 288.753 197.524 289.457 200.031 290.181C200.031 292.291 200.031 294.401 200.031 296.575C201.857 297.278 203.682 297.982 205.562 298.706C206.83 303.102 206.83 303.102 207.406 307.231C200.492 309.629 200.492 309.629 196.344 307.231C195.177 302.827 195.177 302.827 194.27 297.507C193.961 295.746 193.652 293.985 193.333 292.171C193.11 290.811 192.886 289.451 192.656 288.05Z" fill="#D1BC70"/>
<path d="M157.625 245.425C161.197 246.091 161.197 246.091 165 247.556C167.282 255.469 167.5 263.142 167.881 271.4C167.96 272.997 168.04 274.595 168.122 276.241C168.317 280.177 168.503 284.113 168.688 288.05C168.079 288.05 167.471 288.05 166.844 288.05C163.771 273.842 160.698 259.633 157.625 245.425Z" fill="#4F603D"/>
<path d="M157.625 356.25C157.625 360.512 157.625 360.512 152.785 366.24C147.869 370.868 147.065 371.201 140.34 370.769C138.743 370.198 137.146 369.626 135.5 369.037C142.086 360.624 147.669 356.25 157.625 356.25Z" fill="#F8F3DF"/>
<path d="M102.312 443.631C99.8787 444.335 97.445 445.038 94.9375 445.763C95.5459 447.169 96.1544 448.576 96.7812 450.025C101.441 451.422 101.441 451.422 106 452.156C106 452.86 106 453.563 106 454.288C95.3266 454.728 86.7709 453.417 76.5 450.025C85.3786 444.527 92.2242 443.366 102.312 443.631Z" fill="#B28C41"/>
<path d="M37.7812 398.875C45.6909 398.875 53.6006 398.875 61.75 398.875C61.75 399.578 61.75 400.282 61.75 401.006C58.7078 401.71 55.6656 402.413 52.5312 403.138C51.9228 405.247 51.3144 407.357 50.6875 409.531C48.8622 410.235 47.0369 410.938 45.1562 411.663C42.6199 408.914 40.164 406.064 37.7812 403.138C37.7812 401.731 37.7812 400.324 37.7812 398.875Z" fill="#E0DACF"/>
<path d="M152.094 349.856C152.702 351.966 153.311 354.076 153.938 356.25C149.763 359.163 145.576 362.044 141.377 364.908C140.192 365.739 139.007 366.57 137.787 367.427C134.647 369.552 131.389 371.442 128.125 373.3C126.3 372.597 124.474 371.893 122.594 371.169C124.17 370.141 125.745 369.114 127.369 368.055C129.406 366.709 131.442 365.363 133.541 363.976C135.573 362.641 137.605 361.305 139.699 359.93C144.856 356.849 144.856 356.849 146.562 351.988C148.388 351.284 150.213 350.581 152.094 349.856Z" fill="#515F30"/>
<path d="M187.125 253.95C188.342 253.95 189.559 253.95 190.812 253.95C192.887 259.944 192.887 259.944 194.5 266.738C192.675 269.902 192.675 269.902 190.812 273.131C185.294 270.792 183.721 269.558 181.133 263.274C180.676 261.604 180.22 259.933 179.75 258.213C182.184 258.213 184.617 258.213 187.125 258.213C187.125 256.806 187.125 255.399 187.125 253.95Z" fill="#E8D89F"/>
<path d="M8.28125 279.525C11.9319 280.58 11.9319 280.58 15.6562 281.656C15.6562 283.766 15.6562 285.876 15.6562 288.05C17.4816 288.753 19.3069 289.457 21.1875 290.181C19.8047 300.305 19.8047 300.305 15.6562 305.1C15.7323 303.078 15.8084 301.056 15.8867 298.973C16.3011 292.094 16.3011 292.094 11.9688 288.05C10.1434 290.16 8.31812 292.27 6.4375 294.444C7.04594 289.521 7.65437 284.597 8.28125 279.525Z" fill="#D9C47A"/>
<path d="M185.281 390.35C185.89 391.757 186.498 393.163 187.125 394.612C188.342 394.612 189.559 394.612 190.812 394.612C190.204 397.426 189.596 400.239 188.969 403.137C187.752 403.137 186.535 403.137 185.281 403.137C185.281 405.247 185.281 407.357 185.281 409.531C184.064 409.531 182.848 409.531 181.594 409.531C181.594 411.641 181.594 413.751 181.594 415.925C179.768 415.925 177.943 415.925 176.062 415.925C176.062 413.815 176.062 411.705 176.062 409.531C177.279 409.531 178.496 409.531 179.75 409.531C179.75 408.125 179.75 406.718 179.75 405.269C180.967 405.269 182.184 405.269 183.438 405.269C184.046 400.346 184.654 395.422 185.281 390.35Z" fill="#B48529"/>
<path d="M177.906 330.675C179.732 331.378 181.557 332.082 183.438 332.806C180.759 335.661 178.068 338.499 175.371 341.331C173.874 342.914 172.376 344.496 170.834 346.127C166.844 349.856 166.844 349.856 163.156 349.856C163.156 353.373 163.156 356.889 163.156 360.512C162.548 360.512 161.939 360.512 161.312 360.512C160.794 354.702 160.794 354.702 161.312 347.725C164.942 342.747 164.942 342.747 169.609 338.401C171.149 336.934 172.69 335.467 174.276 333.955C175.474 332.873 176.672 331.79 177.906 330.675Z" fill="#B8B197"/>
<path d="M102.312 390.35C91.6224 398.946 83.8497 399.954 70.9688 398.875C76.0627 394.95 79.8318 393.073 85.6035 391.016C87.9672 390.147 87.9672 390.147 90.3785 389.259C95.1313 388.175 97.7852 388.541 102.312 390.35Z" fill="#E9DCC1"/>
<path d="M21.1875 245.425C22.91 251.841 23.1133 253.665 21.1875 260.344C22.4044 261.047 23.6212 261.75 24.875 262.475C23.6581 262.475 22.4413 262.475 21.1875 262.475C20.3889 265.574 20.3889 265.574 19.5742 268.736C17.5 275.262 17.5 275.262 13.8125 277.394C17.3656 254.892 17.3656 254.892 21.1875 245.425Z" fill="#FBF4D8"/>
<path d="M152.094 175.094C153.919 176.149 153.919 176.149 155.781 177.225C157.286 182.728 157.286 182.728 158.662 189.613C159.121 191.868 159.58 194.124 160.052 196.448C160.468 198.544 160.884 200.64 161.312 202.8C161.92 205.644 162.532 208.486 163.156 211.325C161.331 212.028 159.506 212.732 157.625 213.456C155.781 200.669 153.938 187.881 152.094 175.094Z" fill="#F1EBD6"/>
<path d="M203.719 351.987C204.936 351.987 206.152 351.987 207.406 351.987C207.867 363.976 207.867 363.976 203.719 371.169C202.502 371.169 201.285 371.169 200.031 371.169C200.031 366.246 200.031 361.322 200.031 356.25C201.248 356.25 202.465 356.25 203.719 356.25C203.719 354.843 203.719 353.437 203.719 351.987Z" fill="#B38B38"/>
<path d="M122.594 89.8438C126.244 90.8987 126.244 90.8987 129.969 91.975C127.231 105.69 127.231 105.69 124.438 119.681C123.221 118.978 122.004 118.275 120.75 117.55C120.883 116.086 121.016 114.621 121.153 113.113C121.324 111.192 121.496 109.272 121.672 107.293C121.843 105.389 122.014 103.486 122.19 101.524C122.675 96.0605 122.675 96.0605 122.594 89.8438Z" fill="#DDC78A"/>
<path d="M183.438 415.925C183.438 422.319 183.438 422.319 179.75 428.712C178.533 428.712 177.316 428.712 176.062 428.712C175.872 430.075 175.682 431.438 175.486 432.842C175.068 434.292 174.65 435.743 174.219 437.237C172.393 437.941 170.568 438.644 168.688 439.369C167.471 437.962 166.254 436.555 165 435.106C171.084 428.776 177.169 422.447 183.438 415.925Z" fill="#F6EDD6"/>
<path d="M174.219 375.431C180.645 376.807 185.333 379.91 190.812 383.956C191.421 381.846 192.029 379.736 192.656 377.563C193.265 378.969 193.873 380.376 194.5 381.825C192.675 384.99 192.675 384.99 190.812 388.219C185.337 387.164 185.337 387.164 179.75 386.088C179.142 383.978 178.533 381.868 177.906 379.694C176.689 379.694 175.473 379.694 174.219 379.694C174.219 378.287 174.219 376.881 174.219 375.431Z" fill="#63543B"/>
<path d="M159.469 351.987C162.508 358.311 163.973 364.042 165 371.169C168.042 371.872 171.084 372.575 174.219 373.3C173.61 374.707 173.002 376.113 172.375 377.562C166.899 376.508 166.899 376.508 161.313 375.431C159.145 367.601 159.333 360.152 159.469 351.987Z" fill="#625743"/>
<path d="M19.3438 356.25C23.0312 358.381 23.0312 358.381 24.875 363.643C26.1042 367.95 27.3333 372.257 28.5625 376.563C29.9321 382.138 29.9321 382.138 34.0938 383.956C34.0938 386.066 34.0938 388.176 34.0938 390.35C28.5625 388.219 28.5625 388.219 26.0057 382.641C24.8186 379.204 24.8186 379.204 23.6074 375.698C22.8017 373.417 21.996 371.137 21.1659 368.788C19.3438 362.644 19.3438 362.644 19.3438 356.25Z" fill="#58834F"/>
<path d="M128.125 281.656C134.858 285.753 138.011 288.52 141.031 296.575C142.248 297.278 143.465 297.982 144.719 298.706C144.11 300.816 143.502 302.926 142.875 305.1C142.875 303.693 142.875 302.287 142.875 300.838C141.468 300.354 140.061 299.87 138.611 299.372C132.596 295.976 130.96 292.817 128.125 285.919C128.125 284.512 128.125 283.106 128.125 281.656Z" fill="#68677D"/>
<path d="M28.5625 275.263C28.6932 276.592 28.8239 277.922 28.9586 279.292C30.0376 284.197 30.0376 284.197 34.2162 286.019C35.7349 286.513 37.2536 287.008 38.8184 287.517C40.3418 288.034 41.8653 288.55 43.4349 289.082C44.6114 289.445 45.7879 289.808 47 290.181C47 291.588 47 292.995 47 294.444C39.0903 292.334 31.1806 290.224 23.0312 288.05C24.8566 283.83 26.6819 279.61 28.5625 275.263Z" fill="#4B4549"/>
<path d="M159.469 441.5C158.252 444.313 157.035 447.127 155.781 450.025C154.564 450.025 153.348 450.025 152.094 450.025C150.877 451.432 149.66 452.838 148.406 454.288C147.798 453.584 147.189 452.881 146.562 452.156C143.49 452.07 140.416 452.065 137.344 452.156C143.871 447.126 151.421 441.5 159.469 441.5Z" fill="#F5EDD4"/>
<path d="M192.656 296.575C193.265 296.575 193.873 296.575 194.5 296.575C195.43 307.861 193.186 313.342 187.125 322.15C185.3 323.557 183.474 324.963 181.594 326.413C181.594 323.599 181.594 320.786 181.594 317.888C183.419 317.184 185.244 316.481 187.125 315.756C188.477 311.462 188.477 311.462 188.969 307.231C190.186 307.231 191.402 307.231 192.656 307.231C192.656 303.715 192.656 300.198 192.656 296.575Z" fill="#517037"/>
<path d="M74.6562 136.731C76.9709 144.758 75.3396 148.18 72.8125 155.913C69.7396 155.913 66.6667 155.913 63.5938 155.913C66.4093 148.59 70.2299 142.871 74.6562 136.731Z" fill="#FAF5DD"/>
<path d="M192.656 309.362C193.873 309.362 195.09 309.362 196.344 309.362C195.412 318.694 190.484 323.89 185.281 330.675C183.456 329.972 181.631 329.268 179.75 328.544C180.527 327.516 181.304 326.489 182.105 325.43C183.115 324.084 184.125 322.738 185.166 321.351C186.171 320.016 187.177 318.68 188.213 317.305C190.941 313.718 190.941 313.718 192.656 309.362Z" fill="#9C9876"/>
<path d="M6.43752 298.706C7.04596 298.706 7.6544 298.706 8.28127 298.706C8.88971 302.926 9.49815 307.146 10.125 311.494C10.7335 311.494 11.3419 311.494 11.9688 311.494C11.9688 315.714 11.9688 319.933 11.9688 324.281C10.1435 323.578 8.31815 322.875 6.43752 322.15C4.88695 313.587 4.49412 307.193 6.43752 298.706Z" fill="#CEAB5D"/>
<path d="M194.5 281.656C196.325 281.656 198.151 281.656 200.031 281.656C202 285.843 203.84 290.114 205.562 294.444C204.954 295.85 204.346 297.257 203.719 298.706C200.031 296.575 200.031 296.575 198.188 290.181C194.5 287.605 194.5 287.605 190.812 285.919C192.029 284.512 193.246 283.105 194.5 281.656Z" fill="#D8C783"/>
<path d="M37.7812 424.45C40.859 426.527 43.9308 428.616 47 430.711C49.5668 432.454 49.5668 432.454 52.1855 434.232C53.5165 435.224 54.8475 436.216 56.2188 437.238C56.2188 437.941 56.2188 438.644 56.2188 439.369C53.1766 439.369 50.1344 439.369 47 439.369C47 437.962 47 436.556 47 435.106C44.5662 434.403 42.1325 433.7 39.625 432.975C39.0166 430.162 38.4081 427.349 37.7812 424.45Z" fill="#F8F3DC"/>
<path d="M142.875 113.287C146.526 115.397 146.526 115.397 150.25 117.55C149.642 123.176 149.033 128.803 148.406 134.6C147.798 131.787 147.189 128.973 146.562 126.075C145.346 126.075 144.129 126.075 142.875 126.075C142.875 121.855 142.875 117.635 142.875 113.287Z" fill="#E1D196"/>
<path d="M148.406 74.925C150.84 74.925 153.274 74.925 155.781 74.925C155.781 81.2549 155.781 87.5847 155.781 94.1063C155.173 94.1063 154.564 94.1063 153.938 94.1063C153.329 90.5897 152.721 87.0732 152.094 83.45C150.877 85.56 149.66 87.6699 148.406 89.8438C148.406 84.9206 148.406 79.9974 148.406 74.925Z" fill="#F7F4E6"/>
<path d="M17.5 394.612C21.9941 395.945 21.9941 395.945 26.7188 398.875C28.2168 405.535 28.2168 405.535 28.5625 411.662C19.5742 401.805 19.5742 401.805 17.5 394.612Z" fill="#B08B3F"/>
<path d="M94.9375 388.219C89.3949 394.626 84.1998 393.751 76.5 394.613C82.013 385.054 85.9431 385.69 94.9375 388.219Z" fill="#6A6942"/>
<path d="M113.375 430.844C114.592 432.954 115.809 435.064 117.062 437.237C115.219 439.369 115.219 439.369 109.796 439.577C106.491 439.54 106.491 439.54 103.119 439.502C99.8072 439.473 99.8072 439.473 96.4283 439.444C94.7195 439.419 93.0106 439.394 91.25 439.369C91.25 438.665 91.25 437.962 91.25 437.237C97.9428 437.237 104.636 437.237 111.531 437.237C112.14 435.128 112.748 433.018 113.375 430.844Z" fill="#D3D1D1"/>
<path d="M139.188 300.838C140.404 300.838 141.621 300.838 142.875 300.838C143.331 302.552 143.788 304.266 144.258 306.032C146.051 311.858 146.051 311.858 150.48 313.225C152.192 313.423 152.192 313.423 153.938 313.625C150.287 315.735 150.287 315.735 146.562 317.888C144.129 312.261 141.695 306.635 139.188 300.838Z" fill="#4D4650"/>
<path d="M52.5312 53.6125C56.7651 60.9537 57.2147 66.2682 58.0625 74.925C56.2372 74.2217 54.4119 73.5184 52.5312 72.7938C50.0053 65.9808 51.0097 60.6477 52.5312 53.6125Z" fill="#F8F1DC"/>
<path d="M61.75 55.7438C66.2441 57.0758 66.2441 57.0758 70.9688 60.0063C72.4668 66.6664 72.4668 66.6664 72.8125 72.7938C67.8946 67.488 64.4097 62.9174 61.75 55.7438Z" fill="#FAF6E0"/>
<path d="M26.7188 398.875C32.25 401.006 32.25 401.006 34.4395 405.402C34.9338 406.765 35.4282 408.127 35.9375 409.531C33.5037 410.235 31.07 410.938 28.5625 411.663C27.9541 407.443 27.3456 403.223 26.7188 398.875Z" fill="#B38126"/>
<path d="M150.25 356.25C151.467 356.953 152.684 357.657 153.938 358.381C146.015 366.915 146.015 366.915 142.875 369.038C138.813 368.297 138.813 368.297 135.5 366.906C137.87 365.065 140.254 363.249 142.645 361.445C144.634 359.924 144.634 359.924 146.663 358.373C147.847 357.672 149.031 356.972 150.25 356.25Z" fill="#C0B695"/>
<path d="M59.9062 109.025C60.5147 109.025 61.1231 109.025 61.75 109.025C60.1696 127.293 60.1696 127.293 56.2187 134.6C55.692 116.332 55.692 116.332 59.9062 109.025Z" fill="#FAF6E4"/>
<path d="M61.75 57.875C64.5156 60.8055 64.5156 60.8055 67.2812 64.2687C67.2812 65.6754 67.2812 67.082 67.2812 68.5312C64.2391 68.5312 61.1969 68.5312 58.0625 68.5312C58.0625 66.4213 58.0625 64.3114 58.0625 62.1375C59.2794 62.1375 60.4962 62.1375 61.75 62.1375C61.75 60.7309 61.75 59.3242 61.75 57.875Z" fill="#C6A75B"/>
<path d="M161.312 375.431C159.254 382.571 158.092 383.516 152.9 387.553C151.719 388.484 150.538 389.415 149.321 390.375C148.411 391.07 147.5 391.765 146.562 392.481C149.36 384.937 153.483 375.431 161.312 375.431Z" fill="#766240"/>
</svg>
